<?xml version="1.0" encoding="UTF-8"?>
<svg width="16px" height="16px" viewBox="0 0 16 16" version="1.1" xmlns="http://www.w3.org/2000/svg" xmlns:xlink="http://www.w3.org/1999/xlink">
    <title>Group 5</title>
    <defs>
        <filter id="filter-1">
            <feColorMatrix in="SourceGraphic" type="matrix" values="0 0 0 0 0.039216 0 0 0 0 0.000000 0 0 0 0 0.403922 0 0 0 1.000000 0"></feColorMatrix>
        </filter>
        <polygon id="path-2" points="2.07792208e-05 0 15.9495758 0 15.9495758 15.9495758 2.07792208e-05 15.9495758"></polygon>
    </defs>
    <g id="Page-1" stroke="none" stroke-width="1" fill="none" fill-rule="evenodd">
        <g id="Usuarios-1" transform="translate(-1495.000000, -209.000000)">
            <g id="Group-4" transform="translate(1495.000000, 209.000000)" filter="url(#filter-1)">
                <g id="Group-3">
                    <mask id="mask-3" fill="white">
                        <use xlink:href="#path-2"></use>
                    </mask>
                    <g id="Clip-2"></g>
                    <path d="M7.97480866,13.8338424 C6.82530216,13.8338424 5.75607273,13.4968727 4.85072208,12.9221887 L12.9222026,4.85070823 C13.4968866,5.75605887 13.8338563,6.82528831 13.8338563,7.97479481 C13.8338563,11.2056866 11.2057004,13.8338424 7.97480866,13.8338424 M7.97480866,2.11574719 C9.12424589,2.11574719 10.1935446,2.45264762 11.100142,3.02740087 L3.02741472,11.1000589 C2.45259221,10.1935307 2.11576104,9.12423203 2.11576104,7.97479481 C2.11576104,4.74397229 4.74391688,2.11574719 7.97480866,2.11574719 M7.97480866,-6.23376623e-05 C3.57667879,-6.23376623e-05 2.07792209e-05,3.57666494 2.07792209e-05,7.97479481 C2.07792209e-05,12.3716087 3.57667879,15.9495827 7.97480866,15.9495827 C12.3716225,15.9495827 15.9495965,12.3716087 15.9495965,7.97479481 C15.9495965,3.57666494 12.3716225,-6.23376623e-05 7.97480866,-6.23376623e-05" id="Fill-1" fill="#000000" mask="url(#mask-3)"></path>
                </g>
            </g>
        </g>
    </g>
</svg>