<?xml version="1.0" encoding="UTF-8"?>
<svg width="22px" height="27px" viewBox="0 0 22 27" version="1.1" xmlns="http://www.w3.org/2000/svg" xmlns:xlink="http://www.w3.org/1999/xlink">
    <title>Group 3</title>
    <defs>
        <filter id="filter-1">
            <feColorMatrix in="SourceGraphic" type="matrix" values="0 0 0 0 0.039216 0 0 0 0 0.000000 0 0 0 0 0.403922 0 0 0 1.000000 0"></feColorMatrix>
        </filter>
        <polygon id="path-2" points="0.553175904 0.380187266 13.5531759 0.380187266 13.5531759 22.3801873 0.553175904 22.3801873"></polygon>
    </defs>
    <g id="Page-1" stroke="none" stroke-width="1" fill="none" fill-rule="evenodd">
        <g id="Group-3" transform="translate(-1384.000000, -204.000000)" filter="url(#filter-1)">
            <g transform="translate(1395.000000, 217.500000) rotate(21.000000) translate(-1395.000000, -217.500000) translate(1388.000000, 206.000000)">
                <mask id="mask-3" fill="white">
                    <use xlink:href="#path-2"></use>
                </mask>
                <g id="Clip-2"></g>
                <path d="M3.81168492,18.3672024 L2.15157888,19.4603478 L2.16333184,17.3723898 L7.26411782,7.81185344 L8.97637762,8.70330886 L3.81168492,18.3672024 Z M9.15414119,4.266129 L10.8693392,5.15973769 L9.70873414,7.33310887 L7.99573977,6.44021793 L9.15414119,4.266129 Z M11.0037638,1.92767348 C11.1646324,1.92767348 11.3159518,1.96571465 11.4569874,2.03820821 C11.6854356,2.15735604 11.8521808,2.35473948 11.9271059,2.59662392 C12.0020311,2.83707285 11.9755869,3.09331245 11.8521808,3.32084173 L11.6016958,3.78810218 L9.89310874,2.89880004 L10.1509394,2.42723304 C10.3198882,2.11859711 10.6460329,1.92767348 11.0037638,1.92767348 L11.0037638,1.92767348 Z M13.441769,2.14658967 C13.2419687,1.50993833 12.8019671,0.986692763 12.202566,0.67446804 C11.8352859,0.481391142 11.4187903,0.380187266 11.0037638,0.380187266 C10.0605885,0.380187266 9.19894936,0.886206645 8.75454045,1.69942644 L8.12134956,2.8600411 L0.584027432,16.9898248 L0.553175904,22.3801873 L5.02958571,19.4302019 L13.2515179,4.04290626 C13.5717862,3.45506247 13.6401003,2.78252324 13.441769,2.14658967 L13.441769,2.14658967 Z" id="Fill-1" fill="#2B2B2B" mask="url(#mask-3)"></path>
            </g>
        </g>
    </g>
</svg>