<?xml version="1.0" encoding="UTF-8"?>
<svg width="16px" height="16px" viewBox="0 0 16 16" version="1.1" xmlns="http://www.w3.org/2000/svg" xmlns:xlink="http://www.w3.org/1999/xlink">
    <title>Group 3</title>
    <defs>
        <filter id="filter-1">
            <feColorMatrix in="SourceGraphic" type="matrix" values="0 0 0 0 0.039216 0 0 0 0 0.000000 0 0 0 0 0.403922 0 0 0 1.000000 0"></feColorMatrix>
        </filter>
        <polygon id="path-2" points="0 0 16 0 16 16 0 16"></polygon>
    </defs>
    <g id="Page-1" stroke="none" stroke-width="1" fill="none" fill-rule="evenodd">
        <g id="Group-3" transform="translate(-1524.000000, -104.000000)" filter="url(#filter-1)">
            <g transform="translate(1524.000000, 104.000000)">
                <mask id="mask-3" fill="white">
                    <use xlink:href="#path-2"></use>
                </mask>
                <g id="Clip-2"></g>
                <path d="M12.2389144,9.00046408 C12.2382614,9.18070435 12.0900204,9.32763935 11.9110863,9.32568021 L9.29891052,9.31261933 L9.28584964,11.9247971 C9.2851966,12.1043843 9.13695562,12.2506663 8.95736854,12.2493689 L6.99888972,12.2389115 C6.81864959,12.2389115 6.67302079,12.0913235 6.67367383,11.9110832 L6.68673471,9.29890539 L4.07521194,9.2858445 C3.89497181,9.28519146 3.74868996,9.13695037 3.74998737,8.95801619 L3.76044475,6.99888284 C3.7610978,6.81864257 3.90803269,6.67301366 4.08892586,6.6736667 L6.70044863,6.68672759 L6.71416256,4.07520284 C6.7148156,3.89496257 6.86175049,3.74933366 7.04199062,3.74998451 L9.00112248,3.76043541 C9.18005652,3.76043541 9.32633837,3.90802346 9.32568533,4.08891677 L9.31262445,6.70044153 L11.9248003,6.71350242 C12.1043873,6.7148085 12.2513222,6.86239655 12.2493825,7.04198377 L12.2389144,9.00046408 Z M8.04049483,0.000102257519 C3.62199944,-0.0219980415 0.0224211642,3.54101248 0.000108314375,7.95885818 C-0.0226388686,12.3773569 3.54036894,15.9769379 7.95821129,15.9998977 C12.3767067,16.021998 15.9762849,12.4596405 15.9998977,8.04048874 C16.021998,3.62264303 12.4589902,0.0230620255 8.04049483,0.000102257519 L8.04049483,0.000102257519 Z" id="Fill-1" fill="#000000" mask="url(#mask-3)"></path>
            </g>
        </g>
    </g>
</svg>