<?xml version="1.0" encoding="UTF-8"?>
<svg width="22px" height="15px" viewBox="0 0 22 15" version="1.1" xmlns="http://www.w3.org/2000/svg" xmlns:xlink="http://www.w3.org/1999/xlink">
    <title>Group 3</title>
    <defs>
        <filter id="filter-1">
            <feColorMatrix in="SourceGraphic" type="matrix" values="0 0 0 0 0.039216 0 0 0 0 0.000000 0 0 0 0 0.403922 0 0 0 1.000000 0"></feColorMatrix>
        </filter>
        <polygon id="path-2" points="0 0 22 0 22 15 0 15"></polygon>
    </defs>
    <g id="Page-1" stroke="none" stroke-width="1" fill="none" fill-rule="evenodd">
        <g id="Group-3" transform="translate(-1035.000000, -210.000000)" filter="url(#filter-1)">
            <g transform="translate(1035.000000, 210.000000)">
                <mask id="mask-3" fill="white">
                    <use xlink:href="#path-2"></use>
                </mask>
                <g id="Clip-2"></g>
                <path d="M11,4.50015779 C9.34005929,4.50015779 7.99990437,5.84031698 7.99990437,7.49973702 C7.99990437,9.15968302 9.34005929,10.4998422 11,10.4998422 C12.6599407,10.4998422 13.9995697,9.15968302 13.9995697,7.49973702 C13.9995697,5.84031698 12.6599407,4.50015779 11,4.50015779 M11,12.5000877 C8.23974371,12.5000877 5.9996653,10.2600021 5.9996653,7.49973702 C5.9996653,4.7399979 8.23974371,2.49991234 11,2.49991234 C13.7597303,2.49991234 15.9998087,4.7399979 15.9998087,7.49973702 C15.9998087,10.2600021 13.7597303,12.5000877 11,12.5000877 M11,0 C5.9996653,0 1.72989385,3.11003191 0,7.49973702 C1.72989385,11.8899681 5.9996653,15 11,15 C15.9998087,15 20.2695802,11.8899681 22,7.49973702 C20.2695802,3.11003191 15.9998087,0 11,0" id="Fill-1" fill="#000000" mask="url(#mask-3)"></path>
            </g>
        </g>
    </g>
</svg>